<svg width="100%" height="100%" version="1.1" viewBox="0 0 379.33 379.51" xmlns="http://www.w3.org/2000/svg">
 <g transform="translate(-57.989 -47.586)">
  <path d="m229.48 426.23c-58.638-5.6557-112.43-39.601-144.04-90.888-10.243-16.621-19.564-40.451-23.665-60.5-12.657-61.875 6.8875-126.26 52.033-171.4 32.55-32.55 73.037-51.176 120.15-55.275 30.493-2.6532 65.429 3.9008 94.71 17.767 38.999 18.469 71.981 51.451 90.45 90.45 24.74 52.242 24.241 112.46-1.3646 164.46-34.794 70.664-110.27 112.91-188.28 105.39zm48.732-8.9198c38.392-6.5178 70.852-23.312 98.504-50.964 27.733-27.733 44.081-59.378 51.147-99.004 2.6879-15.074 2.9019-42.833.44317-57.494-8.9527-53.383-36.766-96.685-80.594-125.48-52.895-34.748-122.26-39.214-179.5-11.556-72.453 35.009-113.16 112.69-100.88 192.52 6.9366 45.094 29.739 84.921 65.378 114.19 27.734 22.776 65.305 37.369 103.5 40.2 9.394.69637 30.986-.54517 42-2.415zm-31.064-13.273c-.27552-.71801-.3739-6.9-.21861-13.738.25835-11.376.44663-12.464 2.2162-12.803 3.5568-.68218 4.5661 2.487 4.5661 14.338 0 7.3069-.4107 11.52-1.2 12.309-1.5922 1.5922-4.736 1.5303-5.3637-.10547zm76.736-88.945c-5.9882-5.6237-45.305-43.109-59.185-56.428l-5.5128-5.29-5.0726 1.6222c-7.366 2.3556-13.421 1.2256-18.633-3.4772-4.7553-4.2909-6.7693-8.5088-6.7693-14.177 0-5.7226 2.0217-9.8931 6.9531-14.343l4.2588-3.8431-13.106-58.334c-7.2083-32.084-13.106-59.026-13.106-59.872 0-2.3069 3.384-3.7968 5.2673-2.319 1.0304.80856 5.9572 20.91 14.819 60.461 12.944 57.768 13.334 59.25 15.627 59.25 3.9955 0 8.624 2.5138 12.464 6.7693 4.6042 5.1025 5.8266 11.286 3.6048 18.234l-1.4946 4.6739 35.356 33.77c19.446 18.574 35.356 34.531 35.356 35.462 0 1.8116-1.8313 4.0912-3.2866 4.0912-.48761 0-3.8814-2.8125-7.5416-6.25zm-240.42-74.83c-2.3276-1.3557-2.2262-4.5947.18426-5.8847 1.0638-.56935 6.4934-1.0352 12.066-1.0352 10.808 0 14 .91205 14 4 0 1.0613-.87042 2.3955-1.9343 2.9648-2.4868 1.3309-22.016 1.2948-24.316-.0449zm307.82-.49133c-.86429-.86428-1.5714-1.9571-1.5714-2.4286s.70714-1.5643 1.5714-2.4286c1.242-1.242 3.9255-1.5714 12.8-1.5714 11.557 0 13.629.63307 13.629 4.1648 0 2.9366-3.3652 3.8352-14.363 3.8352-8.207 0-10.837-.34251-12.066-1.5714zm-143.32-143.09c-.90967-.36706-1.25-4.0297-1.25-13.452 0-11.065.23791-13.039 1.6359-13.576.89976-.34527 2.3623-.17065 3.25.38804 1.2976.81663 1.6695 3.2015 1.8969 12.164.34348 13.54-.75183 16.406-5.5328 14.477z" style="fill:#fff"/>
 </g>
</svg>
